<svg width="25" height="25" viewBox="0 0 25 25" fill="none" xmlns="http://www.w3.org/2000/svg">
<path fill-rule="evenodd" clip-rule="evenodd" d="M7.77605 1.11038C8.99792 1.05413 9.3875 1.04163 12.5 1.04163C15.6125 1.04163 16.0021 1.05517 17.2229 1.11038C18.4438 1.16558 19.2771 1.36038 20.0063 1.64267C20.7698 1.93121 21.4625 2.38225 22.0354 2.96558C22.6188 3.53746 23.0688 4.22913 23.3563 4.99371C23.6396 5.72288 23.8333 6.55621 23.8896 7.77496C23.9458 8.99892 23.9583 9.3885 23.9583 12.5C23.9583 15.6125 23.9448 16.002 23.8896 17.2239C23.8344 18.4427 23.6396 19.276 23.3563 20.0052C23.0687 20.7698 22.618 21.4627 22.0354 22.0354C21.4625 22.6187 20.7698 23.0687 20.0063 23.3562C19.2771 23.6395 18.4438 23.8333 17.225 23.8895C16.0021 23.9458 15.6125 23.9583 12.5 23.9583C9.3875 23.9583 8.99792 23.9447 7.77605 23.8895C6.5573 23.8343 5.72396 23.6395 4.9948 23.3562C4.23013 23.0687 3.53732 22.6179 2.96459 22.0354C2.38165 21.4632 1.93054 20.7707 1.64271 20.0062C1.36042 19.277 1.16667 18.4437 1.11042 17.225C1.05417 16.001 1.04167 15.6114 1.04167 12.5C1.04167 9.38746 1.05521 8.99788 1.11042 7.77704C1.16563 6.55621 1.36042 5.72288 1.64271 4.99371C1.93097 4.22921 2.38242 3.53674 2.96563 2.96454C3.53755 2.38173 4.22966 1.93063 4.99376 1.64267C5.72292 1.36038 6.55626 1.16663 7.775 1.11038H7.77605ZM17.1302 3.17288C15.9219 3.11767 15.5594 3.10621 12.5 3.10621C9.44063 3.10621 9.07813 3.11767 7.8698 3.17288C6.75209 3.22392 6.14584 3.41038 5.74167 3.56767C5.2073 3.776 4.82501 4.02288 4.42396 4.42392C4.0438 4.79376 3.75123 5.244 3.56771 5.74163C3.41042 6.14579 3.22396 6.75204 3.17292 7.86975C3.11771 9.07808 3.10626 9.44058 3.10626 12.5C3.10626 15.5593 3.11771 15.9218 3.17292 17.1302C3.22396 18.2479 3.41042 18.8541 3.56771 19.2583C3.75105 19.7552 4.04376 20.2062 4.42396 20.576C4.79376 20.9562 5.2448 21.2489 5.74167 21.4323C6.14584 21.5895 6.75209 21.776 7.8698 21.827C9.07813 21.8822 9.43959 21.8937 12.5 21.8937C15.5604 21.8937 15.9219 21.8822 17.1302 21.827C18.2479 21.776 18.8542 21.5895 19.2583 21.4323C19.7927 21.2239 20.175 20.977 20.576 20.576C20.9563 20.2062 21.249 19.7552 21.4323 19.2583C21.5896 18.8541 21.776 18.2479 21.8271 17.1302C21.8823 15.9218 21.8938 15.5593 21.8938 12.5C21.8938 9.44058 21.8823 9.07808 21.8271 7.86975C21.776 6.75204 21.5896 6.14579 21.4323 5.74163C21.224 5.20725 20.9771 4.82496 20.576 4.42392C20.2062 4.04378 19.7559 3.75122 19.2583 3.56767C18.8542 3.41038 18.2479 3.22392 17.1302 3.17288ZM11.0365 16.0323C11.8538 16.3725 12.7639 16.4184 13.6114 16.1622C14.4588 15.9059 15.191 15.3634 15.6829 14.6273C16.1748 13.8912 16.3959 13.0071 16.3084 12.1261C16.2209 11.2451 15.8302 10.4218 15.2031 9.79683C14.8034 9.39733 14.32 9.09143 13.7879 8.90115C13.2557 8.71088 12.688 8.64096 12.1255 8.69643C11.5631 8.75191 11.02 8.93139 10.5352 9.22197C10.0505 9.51255 9.6362 9.90698 9.3222 10.3769C9.00819 10.8468 8.80228 11.3805 8.71929 11.9395C8.6363 12.4985 8.67829 13.069 8.84223 13.6099C9.00618 14.1507 9.28801 14.6485 9.66742 15.0674C10.0468 15.4862 10.5144 15.8158 11.0365 16.0323ZM8.33542 8.33538C8.88232 7.78847 9.53159 7.35465 10.2461 7.05867C10.9607 6.76269 11.7266 6.61035 12.5 6.61035C13.2734 6.61035 14.0393 6.76269 14.7539 7.05867C15.4684 7.35465 16.1177 7.78847 16.6646 8.33538C17.2115 8.88228 17.6453 9.53154 17.9413 10.2461C18.2373 10.9607 18.3896 11.7265 18.3896 12.5C18.3896 13.2734 18.2373 14.0393 17.9413 14.7538C17.6453 15.4684 17.2115 16.1176 16.6646 16.6645C15.5601 17.7691 14.062 18.3896 12.5 18.3896C10.938 18.3896 9.43994 17.7691 8.33542 16.6645C7.23091 15.56 6.61039 14.062 6.61039 12.5C6.61039 10.9379 7.23091 9.43989 8.33542 8.33538ZM19.6958 7.48746C19.8314 7.35961 19.9399 7.20588 20.0149 7.03535C20.0899 6.86482 20.13 6.68097 20.1327 6.49468C20.1354 6.30839 20.1008 6.12345 20.0307 5.9508C19.9607 5.77816 19.8567 5.62132 19.725 5.48958C19.5932 5.35784 19.4364 5.25387 19.2637 5.18383C19.0911 5.11379 18.9062 5.0791 18.7199 5.08182C18.5336 5.08453 18.3497 5.1246 18.1792 5.19964C18.0087 5.27469 17.8549 5.38318 17.7271 5.51871C17.4785 5.78228 17.3423 6.13238 17.3476 6.49468C17.3529 6.85698 17.4992 7.20296 17.7554 7.45917C18.0116 7.71538 18.3576 7.86166 18.7199 7.86694C19.0822 7.87222 19.4323 7.73609 19.6958 7.48746Z" fill="black" fill-opacity="0.59"/>
</svg>
